<?xml version="1.0" encoding="iso-8859-1"?>
<!-- Generator: Adobe Illustrator 18.1.1, SVG Export Plug-In . SVG Version: 6.00 Build 0)  -->
<svg version="1.1" id="Capa_1" xmlns="http://www.w3.org/2000/svg" xmlns:xlink="http://www.w3.org/1999/xlink" x="0px" y="0px"
	 viewBox="0 0 14.499 14.499" style="enable-background:new 0 0 14.499 14.499;" xml:space="preserve">
<g>
	<g>
		<path style="fill:#030104;" d="M14.465,5.343c0-2.617-2.068-4.738-4.621-4.738c-0.28,0-0.555,0.025-0.821,0.075
			C8.866,0.709,8.711,0.749,8.56,0.794l1.284,4.55L14.465,5.343L14.465,5.343z"/>
		<path style="fill:#030104;" d="M4.239,5.997c-0.021-0.361-0.13-0.941-0.563-1.483C3.218,3.94,2.52,3.561,1.604,3.375
			c-0.104-0.122-0.258-0.2-0.431-0.2H0.572C0.257,3.175,0,3.431,0,3.748S0.256,4.32,0.572,4.32h0.601
			c0.14,0,0.266-0.052,0.365-0.135c0.673,0.15,1.176,0.425,1.499,0.822c0.292,0.36,0.375,0.746,0.396,0.991H3.41
			c0,2.505,2.482,4.537,5.545,4.537c3.062,0,5.544-2.031,5.544-4.537C14.499,5.998,4.239,5.998,4.239,5.997z"/>
		<path style="fill:#030104;" d="M6.77,10.735c-0.871,0-1.579,0.708-1.579,1.579s0.708,1.579,1.579,1.579s1.579-0.708,1.579-1.579
			S7.641,10.735,6.77,10.735z M6.77,13.087c-0.426,0-0.773-0.347-0.773-0.772s0.347-0.773,0.773-0.773s0.773,0.348,0.773,0.773
			S7.196,13.087,6.77,13.087z"/>
		<path style="fill:#030104;" d="M11.029,10.735c-0.871,0-1.58,0.708-1.58,1.579s0.709,1.579,1.58,1.579
			c0.87,0,1.579-0.708,1.579-1.579S11.899,10.735,11.029,10.735z M11.029,13.087c-0.427,0-0.773-0.347-0.773-0.772
			s0.347-0.773,0.773-0.773c0.426,0,0.772,0.348,0.772,0.773S11.455,13.087,11.029,13.087z"/>
	</g>
</g>
<g>
</g>
<g>
</g>
<g>
</g>
<g>
</g>
<g>
</g>
<g>
</g>
<g>
</g>
<g>
</g>
<g>
</g>
<g>
</g>
<g>
</g>
<g>
</g>
<g>
</g>
<g>
</g>
<g>
</g>
</svg>
