<svg id="Capa_1" enable-background="new 0 0 512 512" height="512" viewBox="0 0 512 512" width="512" xmlns="http://www.w3.org/2000/svg"><g><path d="m221.51 90.322-109.187 109.188c-5.867-2.807-12.352-4.51-19.279-4.51-24.814 0-45 20.186-45 45s20.186 45 45 45c6.927 0 13.412-1.703 19.279-4.51l72.197 73.197c-.619 2.401-1.476 4.719-1.476 7.313v61h60v-61c0-16.569-13.431-30-30-30-2.595 0-4.913.857-7.313 1.476l-72.197-73.197c2.807-5.867 4.51-12.352 4.51-19.279s-1.703-13.412-4.51-19.279l107.692-107.692 18.034 18.045c-13.462 37.852-4.248 80.596 24.39 109.233l10.605 10.605 169.702-169.701-10.605-10.605c-28.638-28.623-71.367-37.808-109.233-24.39l-28.652-29.209c-22.646-22.676-62.197-22.676-84.844 0-19.773 19.748-22.661 50.323-9.113 73.315z"/><path d="m423.043 497c0-24.853-20.147-45-45-45h-210c-24.853 0-45 20.147-45 45v15h300z"/><path d="m303.043 392h30v30h-30z"/><path d="m436.875 150.714-73.114 73.114c19.955 5.29 42.063.374 57.773-15.337 15.698-15.697 20.631-37.809 15.341-57.777z"/></g></svg>